<svg xmlns="http://www.w3.org/2000/svg" width="900" height="480" viewBox="0 0 900 480">
<rect width="900" height="480" fill="#ffffff"/>
<style>text { font-family: "Helvetica Neue", Arial, sans-serif; }</style>
<text x="450.0" y="30.0" text-anchor="middle" font-size="16" font-weight="bold" fill="#222">Gold vs BTC: Normalized Growth</text>
<text x="450.0" y="45.0" text-anchor="middle" font-size="11" fill="#666">Jan 2020 = 1.0  |  Monthly closes</text>
<rect x="80.0" y="50.0" width="790.0" height="370.0" fill="none" stroke="#cccccc" stroke-width="1"/>
<line x1="80.0" y1="407.5523964448216" x2="870.0" y2="407.5523964448216" stroke="#e0e0e0" stroke-width="0.5"/>
<text x="72.0" y="411.5523964448216" text-anchor="end" font-size="11" fill="#555">1.0</text>
<line x1="80.0" y1="374.92868425395477" x2="870.0" y2="374.92868425395477" stroke="#e0e0e0" stroke-width="0.5"/>
<text x="72.0" y="378.92868425395477" text-anchor="end" font-size="11" fill="#555">2.0</text>
<line x1="80.0" y1="342.3049720630879" x2="870.0" y2="342.3049720630879" stroke="#e0e0e0" stroke-width="0.5"/>
<text x="72.0" y="346.3049720630879" text-anchor="end" font-size="11" fill="#555">3.0</text>
<line x1="80.0" y1="309.68125987222106" x2="870.0" y2="309.68125987222106" stroke="#e0e0e0" stroke-width="0.5"/>
<text x="72.0" y="313.68125987222106" text-anchor="end" font-size="11" fill="#555">4.0</text>
<line x1="80.0" y1="277.05754768135415" x2="870.0" y2="277.05754768135415" stroke="#e0e0e0" stroke-width="0.5"/>
<text x="72.0" y="281.05754768135415" text-anchor="end" font-size="11" fill="#555">5.0</text>
<line x1="80.0" y1="244.4338354904873" x2="870.0" y2="244.4338354904873" stroke="#e0e0e0" stroke-width="0.5"/>
<text x="72.0" y="248.4338354904873" text-anchor="end" font-size="11" fill="#555">6.0</text>
<line x1="80.0" y1="211.81012329962044" x2="870.0" y2="211.81012329962044" stroke="#e0e0e0" stroke-width="0.5"/>
<text x="72.0" y="215.81012329962044" text-anchor="end" font-size="11" fill="#555">7.0</text>
<line x1="80.0" y1="179.18641110875353" x2="870.0" y2="179.18641110875353" stroke="#e0e0e0" stroke-width="0.5"/>
<text x="72.0" y="183.18641110875353" text-anchor="end" font-size="11" fill="#555">8.0</text>
<line x1="80.0" y1="146.56269891788673" x2="870.0" y2="146.56269891788673" stroke="#e0e0e0" stroke-width="0.5"/>
<text x="72.0" y="150.56269891788673" text-anchor="end" font-size="11" fill="#555">9.0</text>
<line x1="80.0" y1="113.93898672701988" x2="870.0" y2="113.93898672701988" stroke="#e0e0e0" stroke-width="0.5"/>
<text x="72.0" y="117.93898672701988" text-anchor="end" font-size="11" fill="#555">10.0</text>
<line x1="80.0" y1="81.31527453615303" x2="870.0" y2="81.31527453615303" stroke="#e0e0e0" stroke-width="0.5"/>
<text x="72.0" y="85.31527453615303" text-anchor="end" font-size="11" fill="#555">11.0</text>
<line x1="80.0" y1="50.0" x2="80.0" y2="420.0" stroke="#e0e0e0" stroke-width="0.5"/>
<text x="80.0" y="438.0" text-anchor="middle" font-size="10" fill="#555">2020-01</text>
<line x1="146.7605633802817" y1="50.0" x2="146.7605633802817" y2="420.0" stroke="#e0e0e0" stroke-width="0.5"/>
<text x="146.7605633802817" y="438.0" text-anchor="middle" font-size="10" fill="#555">2020-07</text>
<line x1="213.5211267605634" y1="50.0" x2="213.5211267605634" y2="420.0" stroke="#e0e0e0" stroke-width="0.5"/>
<text x="213.5211267605634" y="438.0" text-anchor="middle" font-size="10" fill="#555">2021-01</text>
<line x1="280.28169014084506" y1="50.0" x2="280.28169014084506" y2="420.0" stroke="#e0e0e0" stroke-width="0.5"/>
<text x="280.28169014084506" y="438.0" text-anchor="middle" font-size="10" fill="#555">2021-07</text>
<line x1="347.0422535211268" y1="50.0" x2="347.0422535211268" y2="420.0" stroke="#e0e0e0" stroke-width="0.5"/>
<text x="347.0422535211268" y="438.0" text-anchor="middle" font-size="10" fill="#555">2022-01</text>
<line x1="413.80281690140845" y1="50.0" x2="413.80281690140845" y2="420.0" stroke="#e0e0e0" stroke-width="0.5"/>
<text x="413.80281690140845" y="438.0" text-anchor="middle" font-size="10" fill="#555">2022-07</text>
<line x1="480.5633802816901" y1="50.0" x2="480.5633802816901" y2="420.0" stroke="#e0e0e0" stroke-width="0.5"/>
<text x="480.5633802816901" y="438.0" text-anchor="middle" font-size="10" fill="#555">2023-01</text>
<line x1="547.3239436619718" y1="50.0" x2="547.3239436619718" y2="420.0" stroke="#e0e0e0" stroke-width="0.5"/>
<text x="547.3239436619718" y="438.0" text-anchor="middle" font-size="10" fill="#555">2023-07</text>
<line x1="614.0845070422536" y1="50.0" x2="614.0845070422536" y2="420.0" stroke="#e0e0e0" stroke-width="0.5"/>
<text x="614.0845070422536" y="438.0" text-anchor="middle" font-size="10" fill="#555">2024-01</text>
<line x1="680.8450704225352" y1="50.0" x2="680.8450704225352" y2="420.0" stroke="#e0e0e0" stroke-width="0.5"/>
<text x="680.8450704225352" y="438.0" text-anchor="middle" font-size="10" fill="#555">2024-07</text>
<line x1="747.6056338028169" y1="50.0" x2="747.6056338028169" y2="420.0" stroke="#e0e0e0" stroke-width="0.5"/>
<text x="747.6056338028169" y="438.0" text-anchor="middle" font-size="10" fill="#555">2025-01</text>
<line x1="814.3661971830986" y1="50.0" x2="814.3661971830986" y2="420.0" stroke="#e0e0e0" stroke-width="0.5"/>
<text x="814.3661971830986" y="438.0" text-anchor="middle" font-size="10" fill="#555">2025-07</text>
<text x="16" y="235.0" text-anchor="middle" font-size="12" fill="#444" transform="rotate(-90,16,235.0)">Growth of $1</text>
<polygon points="80.0,407.6 91.1,409.5 102.3,417.8 113.4,410.1 124.5,407.2 135.6,408.3 146.8,400.6 157.9,399.5 169.0,402.6 180.1,392.1 191.3,371.5 202.4,339.0 213.5,324.7 224.6,282.4 235.8,235.0 246.9,238.9 258.0,310.0 269.2,317.9 280.3,295.5 291.4,275.7 302.5,287.4 313.7,226.1 324.8,241.3 335.9,278.9 347.0,305.9 358.2,289.4 369.3,281.3 380.4,308.8 391.5,329.3 402.7,371.1 413.8,358.9 424.9,370.2 436.1,372.4 447.2,368.7 458.3,380.3 469.4,382.5 480.6,359.4 491.7,359.3 502.8,340.8 513.9,338.1 525.1,345.2 536.2,333.8 547.3,337.8 558.5,349.3 569.6,345.9 580.7,319.8 591.8,308.6 603.0,292.7 614.1,291.6 625.2,259.4 636.3,191.4 647.5,228.5 658.6,204.6 669.7,225.6 680.8,207.1 692.0,234.0 703.1,219.2 714.2,187.8 725.4,103.8 736.5,114.3 747.6,82.9 758.7,146.0 769.9,152.3 781.0,108.0 792.1,78.0 803.2,68.6 814.4,98.9 825.5,103.5 836.6,146.4 847.7,134.5 858.9,108.4 870.0,97.2 870.0,407.6 858.9,407.6 847.7,407.6 836.6,407.6 825.5,407.6 814.4,407.6 803.2,407.6 792.1,407.6 781.0,407.6 769.9,407.6 758.7,407.6 747.6,407.6 736.5,407.6 725.4,407.6 714.2,407.6 703.1,407.6 692.0,407.6 680.8,407.6 669.7,407.6 658.6,407.6 647.5,407.6 636.3,407.6 625.2,407.6 614.1,407.6 603.0,407.6 591.8,407.6 580.7,407.6 569.6,407.6 558.5,407.6 547.3,407.6 536.2,407.6 525.1,407.6 513.9,407.6 502.8,407.6 491.7,407.6 480.6,407.6 469.4,407.6 458.3,407.6 447.2,407.6 436.1,407.6 424.9,407.6 413.8,407.6 402.7,407.6 391.5,407.6 380.4,407.6 369.3,407.6 358.2,407.6 347.0,407.6 335.9,407.6 324.8,407.6 313.7,407.6 302.5,407.6 291.4,407.6 280.3,407.6 269.2,407.6 258.0,407.6 246.9,407.6 235.8,407.6 224.6,407.6 213.5,407.6 202.4,407.6 191.3,407.6 180.1,407.6 169.0,407.6 157.9,407.6 146.8,407.6 135.6,407.6 124.5,407.6 113.4,407.6 102.3,407.6 91.1,407.6 80.0,407.6" fill="#f7931a" opacity="0.08" stroke="none"/>
<polyline points="80.0,407.6 91.1,406.9 102.3,407.1 113.4,404.7 124.5,404.4 135.6,403.3 146.8,400.2 157.9,399.2 169.0,401.0 180.1,401.3 191.3,403.1 202.4,401.9 213.5,402.0 224.6,403.4 235.8,404.3 246.9,403.1 258.0,401.7 269.2,403.3 280.3,402.3 291.4,402.9 302.5,404.1 313.7,402.9 324.8,402.8 335.9,403.1 347.0,402.7 358.2,401.5 369.3,400.1 380.4,401.7 391.5,402.4 402.7,403.6 413.8,404.1 424.9,405.0 436.1,405.9 447.2,406.4 458.3,404.4 469.4,403.3 480.6,401.1 491.7,402.3 502.8,400.0 513.9,398.7 525.1,399.8 536.2,400.8 547.3,399.7 558.5,400.9 569.6,401.1 580.7,399.6 591.8,398.8 603.0,398.2 614.1,398.7 625.2,398.2 636.3,395.6 647.5,393.4 658.6,391.4 669.7,393.5 680.8,391.6 692.0,390.2 703.1,386.9 714.2,385.4 725.4,385.9 736.5,387.2 747.6,384.7 758.7,382.2 769.9,379.1 781.0,376.9 792.1,373.8 803.2,375.5 814.4,374.7 825.5,372.1 836.6,374.2 847.7,375.5 858.9,376.0 870.0,376.5" fill="none" stroke="#FFD700" stroke-width="2.5"/>
<polyline points="80.0,407.6 91.1,409.5 102.3,417.8 113.4,410.1 124.5,407.2 135.6,408.3 146.8,400.6 157.9,399.5 169.0,402.6 180.1,392.1 191.3,371.5 202.4,339.0 213.5,324.7 224.6,282.4 235.8,235.0 246.9,238.9 258.0,310.0 269.2,317.9 280.3,295.5 291.4,275.7 302.5,287.4 313.7,226.1 324.8,241.3 335.9,278.9 347.0,305.9 358.2,289.4 369.3,281.3 380.4,308.8 391.5,329.3 402.7,371.1 413.8,358.9 424.9,370.2 436.1,372.4 447.2,368.7 458.3,380.3 469.4,382.5 480.6,359.4 491.7,359.3 502.8,340.8 513.9,338.1 525.1,345.2 536.2,333.8 547.3,337.8 558.5,349.3 569.6,345.9 580.7,319.8 591.8,308.6 603.0,292.7 614.1,291.6 625.2,259.4 636.3,191.4 647.5,228.5 658.6,204.6 669.7,225.6 680.8,207.1 692.0,234.0 703.1,219.2 714.2,187.8 725.4,103.8 736.5,114.3 747.6,82.9 758.7,146.0 769.9,152.3 781.0,108.0 792.1,78.0 803.2,68.6 814.4,98.9 825.5,103.5 836.6,146.4 847.7,134.5 858.9,108.4 870.0,97.2" fill="none" stroke="#f7931a" stroke-width="2.5"/>
<text x="875.0" y="376.5" text-anchor="start" font-size="11" fill="#b8860b"> Gold 2.0x</text>
<text x="875.0" y="95.2" text-anchor="start" font-size="11" fill="#f7931a"> BTC 10.5x</text>
<rect x="92.0" y="60.0" width="14" height="3" fill="#FFD700"/>
<text x="112.0" y="66.0" font-size="11" fill="#333">Gold (GLD)</text>
<rect x="92.0" y="80.0" width="14" height="3" fill="#f7931a"/>
<text x="112.0" y="86.0" font-size="11" fill="#333">Bitcoin</text>
</svg>