<svg xmlns="http://www.w3.org/2000/svg" width="900" height="400" viewBox="0 0 900 400">
<rect width="900" height="400" fill="#ffffff"/>
<style>text { font-family: "Helvetica Neue", Arial, sans-serif; }</style>
<text x="450.0" y="30.0" text-anchor="middle" font-size="16" font-weight="bold" fill="#222">Gold / BTC Rolling 12-Month Correlation</text>
<text x="450.0" y="45.0" text-anchor="middle" font-size="11" fill="#666">Monthly log returns</text>
<rect x="80.0" y="50.0" width="790.0" height="290.0" fill="none" stroke="#cccccc" stroke-width="1"/>
<line x1="80.0" y1="339.2319082028501" x2="870.0" y2="339.2319082028501" stroke="#e0e0e0" stroke-width="0.5"/>
<text x="72.0" y="343.2319082028501" text-anchor="end" font-size="11" fill="#555">-0.40</text>
<line x1="80.0" y1="292.46073950405236" x2="870.0" y2="292.46073950405236" stroke="#e0e0e0" stroke-width="0.5"/>
<text x="72.0" y="296.46073950405236" text-anchor="end" font-size="11" fill="#555">-0.20</text>
<line x1="80.0" y1="245.68957080525456" x2="870.0" y2="245.68957080525456" stroke="#e0e0e0" stroke-width="0.5"/>
<text x="72.0" y="249.68957080525456" text-anchor="end" font-size="11" fill="#555">0.00</text>
<line x1="80.0" y1="198.9184021064568" x2="870.0" y2="198.9184021064568" stroke="#e0e0e0" stroke-width="0.5"/>
<text x="72.0" y="202.9184021064568" text-anchor="end" font-size="11" fill="#555">0.20</text>
<line x1="80.0" y1="152.14723340765903" x2="870.0" y2="152.14723340765903" stroke="#e0e0e0" stroke-width="0.5"/>
<text x="72.0" y="156.14723340765903" text-anchor="end" font-size="11" fill="#555">0.40</text>
<line x1="80.0" y1="105.37606470886121" x2="870.0" y2="105.37606470886121" stroke="#e0e0e0" stroke-width="0.5"/>
<text x="72.0" y="109.37606470886121" text-anchor="end" font-size="11" fill="#555">0.60</text>
<line x1="80.0" y1="58.6048960100635" x2="870.0" y2="58.6048960100635" stroke="#e0e0e0" stroke-width="0.5"/>
<text x="72.0" y="62.6048960100635" text-anchor="end" font-size="11" fill="#555">0.80</text>
<line x1="80.0" y1="50.0" x2="80.0" y2="340.0" stroke="#e0e0e0" stroke-width="0.5"/>
<text x="80.0" y="358.0" text-anchor="middle" font-size="10" fill="#555">2021-01</text>
<line x1="160.33898305084745" y1="50.0" x2="160.33898305084745" y2="340.0" stroke="#e0e0e0" stroke-width="0.5"/>
<text x="160.33898305084745" y="358.0" text-anchor="middle" font-size="10" fill="#555">2021-07</text>
<line x1="240.67796610169492" y1="50.0" x2="240.67796610169492" y2="340.0" stroke="#e0e0e0" stroke-width="0.5"/>
<text x="240.67796610169492" y="358.0" text-anchor="middle" font-size="10" fill="#555">2022-01</text>
<line x1="321.0169491525424" y1="50.0" x2="321.0169491525424" y2="340.0" stroke="#e0e0e0" stroke-width="0.5"/>
<text x="321.0169491525424" y="358.0" text-anchor="middle" font-size="10" fill="#555">2022-07</text>
<line x1="401.35593220338984" y1="50.0" x2="401.35593220338984" y2="340.0" stroke="#e0e0e0" stroke-width="0.5"/>
<text x="401.35593220338984" y="358.0" text-anchor="middle" font-size="10" fill="#555">2023-01</text>
<line x1="481.6949152542373" y1="50.0" x2="481.6949152542373" y2="340.0" stroke="#e0e0e0" stroke-width="0.5"/>
<text x="481.6949152542373" y="358.0" text-anchor="middle" font-size="10" fill="#555">2023-07</text>
<line x1="562.0338983050848" y1="50.0" x2="562.0338983050848" y2="340.0" stroke="#e0e0e0" stroke-width="0.5"/>
<text x="562.0338983050848" y="358.0" text-anchor="middle" font-size="10" fill="#555">2024-01</text>
<line x1="642.3728813559322" y1="50.0" x2="642.3728813559322" y2="340.0" stroke="#e0e0e0" stroke-width="0.5"/>
<text x="642.3728813559322" y="358.0" text-anchor="middle" font-size="10" fill="#555">2024-07</text>
<line x1="722.7118644067797" y1="50.0" x2="722.7118644067797" y2="340.0" stroke="#e0e0e0" stroke-width="0.5"/>
<text x="722.7118644067797" y="358.0" text-anchor="middle" font-size="10" fill="#555">2025-01</text>
<line x1="803.0508474576271" y1="50.0" x2="803.0508474576271" y2="340.0" stroke="#e0e0e0" stroke-width="0.5"/>
<text x="803.0508474576271" y="358.0" text-anchor="middle" font-size="10" fill="#555">2025-07</text>
<text x="16" y="195.0" text-anchor="middle" font-size="12" fill="#444" transform="rotate(-90,16,195.0)">Correlation</text>
<line x1="80.0" y1="245.68957080525456" x2="870.0" y2="245.68957080525456" stroke="#999" stroke-width="1" stroke-dasharray="4,3"/>
<polygon points="80.0,194.8 93.4,215.8 106.8,239.3 120.2,245.7 133.6,245.7 146.9,245.7 160.3,245.7 173.7,245.7 187.1,245.7 200.5,245.7 213.9,245.7 227.3,245.7 240.7,245.7 254.1,245.7 267.5,214.1 280.8,192.7 294.2,103.1 307.6,86.5 321.0,111.4 334.4,95.3 347.8,95.1 361.2,132.2 374.6,178.2 388.0,175.4 401.4,126.9 414.7,142.9 428.1,126.4 441.5,133.9 454.9,138.3 468.3,173.6 481.7,164.3 495.1,165.1 508.5,170.6 521.9,155.2 535.3,90.1 548.6,73.4 562.0,91.2 575.4,97.5 588.8,83.0 602.2,148.3 615.6,162.8 629.0,122.9 642.4,115.4 655.8,157.3 669.2,165.2 682.5,169.9 695.9,212.9 709.3,197.2 722.7,202.4 736.1,216.7 749.5,245.7 762.9,235.1 776.3,235.1 789.7,245.7 803.1,245.7 816.4,245.7 829.8,235.8 843.2,245.7 856.6,213.3 870.0,224.9 870.0,245.7 856.6,245.7 843.2,245.7 829.8,245.7 816.4,245.7 803.1,245.7 789.7,245.7 776.3,245.7 762.9,245.7 749.5,245.7 736.1,245.7 722.7,245.7 709.3,245.7 695.9,245.7 682.5,245.7 669.2,245.7 655.8,245.7 642.4,245.7 629.0,245.7 615.6,245.7 602.2,245.7 588.8,245.7 575.4,245.7 562.0,245.7 548.6,245.7 535.3,245.7 521.9,245.7 508.5,245.7 495.1,245.7 481.7,245.7 468.3,245.7 454.9,245.7 441.5,245.7 428.1,245.7 414.7,245.7 401.4,245.7 388.0,245.7 374.6,245.7 361.2,245.7 347.8,245.7 334.4,245.7 321.0,245.7 307.6,245.7 294.2,245.7 280.8,245.7 267.5,245.7 254.1,245.7 240.7,245.7 227.3,245.7 213.9,245.7 200.5,245.7 187.1,245.7 173.7,245.7 160.3,245.7 146.9,245.7 133.6,245.7 120.2,245.7 106.8,245.7 93.4,245.7 80.0,245.7" fill="#27ae60" opacity="0.15" stroke="none"/>
<polygon points="80.0,245.7 93.4,245.7 106.8,245.7 120.2,245.7 133.6,245.7 146.9,245.7 160.3,245.7 173.7,245.7 187.1,245.7 200.5,245.7 213.9,245.7 227.3,245.7 240.7,245.7 254.1,245.7 267.5,245.7 280.8,245.7 294.2,245.7 307.6,245.7 321.0,245.7 334.4,245.7 347.8,245.7 361.2,245.7 374.6,245.7 388.0,245.7 401.4,245.7 414.7,245.7 428.1,245.7 441.5,245.7 454.9,245.7 468.3,245.7 481.7,245.7 495.1,245.7 508.5,245.7 521.9,245.7 535.3,245.7 548.6,245.7 562.0,245.7 575.4,245.7 588.8,245.7 602.2,245.7 615.6,245.7 629.0,245.7 642.4,245.7 655.8,245.7 669.2,245.7 682.5,245.7 695.9,245.7 709.3,245.7 722.7,245.7 736.1,245.7 749.5,245.7 762.9,245.7 776.3,245.7 789.7,245.7 803.1,245.7 816.4,245.7 829.8,245.7 843.2,245.7 856.6,245.7 870.0,245.7 870.0,245.7 856.6,245.7 843.2,246.3 829.8,245.7 816.4,275.4 803.1,273.7 789.7,281.6 776.3,245.7 762.9,245.7 749.5,259.9 736.1,245.7 722.7,245.7 709.3,245.7 695.9,245.7 682.5,245.7 669.2,245.7 655.8,245.7 642.4,245.7 629.0,245.7 615.6,245.7 602.2,245.7 588.8,245.7 575.4,245.7 562.0,245.7 548.6,245.7 535.3,245.7 521.9,245.7 508.5,245.7 495.1,245.7 481.7,245.7 468.3,245.7 454.9,245.7 441.5,245.7 428.1,245.7 414.7,245.7 401.4,245.7 388.0,245.7 374.6,245.7 361.2,245.7 347.8,245.7 334.4,245.7 321.0,245.7 307.6,245.7 294.2,245.7 280.8,245.7 267.5,245.7 254.1,250.9 240.7,296.6 227.3,290.4 213.9,262.3 200.5,288.1 187.1,316.6 173.7,307.0 160.3,311.3 146.9,284.7 133.6,314.6 120.2,283.8 106.8,245.7 93.4,245.7 80.0,245.7" fill="#e74c3c" opacity="0.15" stroke="none"/>
<polyline points="80.0,194.8 93.4,215.8 106.8,239.3 120.2,283.8 133.6,314.6 146.9,284.7 160.3,311.3 173.7,307.0 187.1,316.6 200.5,288.1 213.9,262.3 227.3,290.4 240.7,296.6 254.1,250.9 267.5,214.1 280.8,192.7 294.2,103.1 307.6,86.5 321.0,111.4 334.4,95.3 347.8,95.1 361.2,132.2 374.6,178.2 388.0,175.4 401.4,126.9 414.7,142.9 428.1,126.4 441.5,133.9 454.9,138.3 468.3,173.6 481.7,164.3 495.1,165.1 508.5,170.6 521.9,155.2 535.3,90.1 548.6,73.4 562.0,91.2 575.4,97.5 588.8,83.0 602.2,148.3 615.6,162.8 629.0,122.9 642.4,115.4 655.8,157.3 669.2,165.2 682.5,169.9 695.9,212.9 709.3,197.2 722.7,202.4 736.1,216.7 749.5,259.9 762.9,235.1 776.3,235.1 789.7,281.6 803.1,273.7 816.4,275.4 829.8,235.8 843.2,246.3 856.6,213.3 870.0,224.9" fill="none" stroke="#8e44ad" stroke-width="2.0"/>
<rect x="690.0" y="58.0" width="170" height="50" rx="4" fill="white" stroke="#ccc" opacity="0.9"/>
<text x="700.0" y="78.0" font-size="11" fill="#333">Mean: 0.229</text>
<text x="700.0" y="96.0" font-size="11" fill="#333">Current: 0.089</text>
</svg>