<svg xmlns="http://www.w3.org/2000/svg" width="900" height="400" viewBox="0 0 900 400">
<rect width="900" height="400" fill="#ffffff"/>
<style>text { font-family: "Helvetica Neue", Arial, sans-serif; }</style>
<text x="450.0" y="30.0" text-anchor="middle" font-size="16" font-weight="bold" fill="#222">Drawdown Comparison: Gold vs BTC</text>
<text x="450.0" y="45.0" text-anchor="middle" font-size="11" fill="#666">From peak, monthly closes</text>
<rect x="80.0" y="50.0" width="790.0" height="290.0" fill="none" stroke="#cccccc" stroke-width="1"/>
<line x1="80.0" y1="338.725880187615" x2="870.0" y2="338.725880187615" stroke="#e0e0e0" stroke-width="0.5"/>
<text x="72.0" y="342.725880187615" text-anchor="end" font-size="11" fill="#555">-80%</text>
<line x1="80.0" y1="303.51540699400346" x2="870.0" y2="303.51540699400346" stroke="#e0e0e0" stroke-width="0.5"/>
<text x="72.0" y="307.51540699400346" text-anchor="end" font-size="11" fill="#555">-70%</text>
<line x1="80.0" y1="268.30493380039184" x2="870.0" y2="268.30493380039184" stroke="#e0e0e0" stroke-width="0.5"/>
<text x="72.0" y="272.30493380039184" text-anchor="end" font-size="11" fill="#555">-60%</text>
<line x1="80.0" y1="233.09446060678027" x2="870.0" y2="233.09446060678027" stroke="#e0e0e0" stroke-width="0.5"/>
<text x="72.0" y="237.09446060678027" text-anchor="end" font-size="11" fill="#555">-50%</text>
<line x1="80.0" y1="197.8839874131687" x2="870.0" y2="197.8839874131687" stroke="#e0e0e0" stroke-width="0.5"/>
<text x="72.0" y="201.8839874131687" text-anchor="end" font-size="11" fill="#555">-40%</text>
<line x1="80.0" y1="162.67351421955712" x2="870.0" y2="162.67351421955712" stroke="#e0e0e0" stroke-width="0.5"/>
<text x="72.0" y="166.67351421955712" text-anchor="end" font-size="11" fill="#555">-30%</text>
<line x1="80.0" y1="127.46304102594556" x2="870.0" y2="127.46304102594556" stroke="#e0e0e0" stroke-width="0.5"/>
<text x="72.0" y="131.46304102594556" text-anchor="end" font-size="11" fill="#555">-20%</text>
<line x1="80.0" y1="92.25256783233397" x2="870.0" y2="92.25256783233397" stroke="#e0e0e0" stroke-width="0.5"/>
<text x="72.0" y="96.25256783233397" text-anchor="end" font-size="11" fill="#555">-10%</text>
<line x1="80.0" y1="57.0420946387224" x2="870.0" y2="57.0420946387224" stroke="#e0e0e0" stroke-width="0.5"/>
<text x="72.0" y="61.0420946387224" text-anchor="end" font-size="11" fill="#555">-0%</text>
<line x1="80.0" y1="50.0" x2="80.0" y2="340.0" stroke="#e0e0e0" stroke-width="0.5"/>
<text x="80.0" y="358.0" text-anchor="middle" font-size="10" fill="#555">2020-01</text>
<line x1="146.7605633802817" y1="50.0" x2="146.7605633802817" y2="340.0" stroke="#e0e0e0" stroke-width="0.5"/>
<text x="146.7605633802817" y="358.0" text-anchor="middle" font-size="10" fill="#555">2020-07</text>
<line x1="213.5211267605634" y1="50.0" x2="213.5211267605634" y2="340.0" stroke="#e0e0e0" stroke-width="0.5"/>
<text x="213.5211267605634" y="358.0" text-anchor="middle" font-size="10" fill="#555">2021-01</text>
<line x1="280.28169014084506" y1="50.0" x2="280.28169014084506" y2="340.0" stroke="#e0e0e0" stroke-width="0.5"/>
<text x="280.28169014084506" y="358.0" text-anchor="middle" font-size="10" fill="#555">2021-07</text>
<line x1="347.0422535211268" y1="50.0" x2="347.0422535211268" y2="340.0" stroke="#e0e0e0" stroke-width="0.5"/>
<text x="347.0422535211268" y="358.0" text-anchor="middle" font-size="10" fill="#555">2022-01</text>
<line x1="413.80281690140845" y1="50.0" x2="413.80281690140845" y2="340.0" stroke="#e0e0e0" stroke-width="0.5"/>
<text x="413.80281690140845" y="358.0" text-anchor="middle" font-size="10" fill="#555">2022-07</text>
<line x1="480.5633802816901" y1="50.0" x2="480.5633802816901" y2="340.0" stroke="#e0e0e0" stroke-width="0.5"/>
<text x="480.5633802816901" y="358.0" text-anchor="middle" font-size="10" fill="#555">2023-01</text>
<line x1="547.3239436619718" y1="50.0" x2="547.3239436619718" y2="340.0" stroke="#e0e0e0" stroke-width="0.5"/>
<text x="547.3239436619718" y="358.0" text-anchor="middle" font-size="10" fill="#555">2023-07</text>
<line x1="614.0845070422536" y1="50.0" x2="614.0845070422536" y2="340.0" stroke="#e0e0e0" stroke-width="0.5"/>
<text x="614.0845070422536" y="358.0" text-anchor="middle" font-size="10" fill="#555">2024-01</text>
<line x1="680.8450704225352" y1="50.0" x2="680.8450704225352" y2="340.0" stroke="#e0e0e0" stroke-width="0.5"/>
<text x="680.8450704225352" y="358.0" text-anchor="middle" font-size="10" fill="#555">2024-07</text>
<line x1="747.6056338028169" y1="50.0" x2="747.6056338028169" y2="340.0" stroke="#e0e0e0" stroke-width="0.5"/>
<text x="747.6056338028169" y="358.0" text-anchor="middle" font-size="10" fill="#555">2025-01</text>
<line x1="814.3661971830986" y1="50.0" x2="814.3661971830986" y2="340.0" stroke="#e0e0e0" stroke-width="0.5"/>
<text x="814.3661971830986" y="358.0" text-anchor="middle" font-size="10" fill="#555">2025-07</text>
<text x="16" y="195.0" text-anchor="middle" font-size="12" fill="#444" transform="rotate(-90,16,195.0)">Drawdown</text>
<polygon points="80.0,57.0 91.1,57.0 102.3,57.0 113.4,57.0 124.5,57.0 135.6,57.0 146.8,57.0 157.9,57.0 169.0,57.0 180.1,57.0 191.3,57.0 202.4,57.0 213.5,57.0 224.6,57.0 235.8,57.0 246.9,57.0 258.0,57.0 269.2,57.0 280.3,57.0 291.4,57.0 302.5,57.0 313.7,57.0 324.8,57.0 335.9,57.0 347.0,57.0 358.2,57.0 369.3,57.0 380.4,57.0 391.5,57.0 402.7,57.0 413.8,57.0 424.9,57.0 436.1,57.0 447.2,57.0 458.3,57.0 469.4,57.0 480.6,57.0 491.7,57.0 502.8,57.0 513.9,57.0 525.1,57.0 536.2,57.0 547.3,57.0 558.5,57.0 569.6,57.0 580.7,57.0 591.8,57.0 603.0,57.0 614.1,57.0 625.2,57.0 636.3,57.0 647.5,57.0 658.6,57.0 669.7,57.0 680.8,57.0 692.0,57.0 703.1,57.0 714.2,57.0 725.4,57.0 736.5,57.0 747.6,57.0 758.7,57.0 769.9,57.0 781.0,57.0 792.1,57.0 803.2,57.0 814.4,57.0 825.5,57.0 836.6,57.0 847.7,57.0 858.9,57.0 870.0,57.0 870.0,79.5 858.9,76.9 847.7,74.3 836.6,67.5 825.5,57.0 814.4,62.2 803.2,66.0 792.1,57.0 781.0,57.0 769.9,57.0 758.7,57.0 747.6,57.0 736.5,68.4 725.4,60.7 714.2,57.0 703.1,57.0 692.0,57.0 680.8,58.3 669.7,72.2 658.6,57.0 647.5,57.0 636.3,57.0 625.2,57.2 614.1,61.6 603.0,57.0 591.8,58.0 580.7,64.7 569.6,77.5 558.5,75.8 547.3,65.4 536.2,74.5 525.1,65.8 513.9,57.0 502.8,64.0 491.7,83.9 480.6,73.2 469.4,92.6 458.3,102.2 447.2,119.5 436.1,114.8 424.9,107.3 413.8,99.4 402.7,94.8 391.5,85.1 380.4,78.9 369.3,64.6 358.2,77.2 347.0,87.1 335.9,90.5 324.8,88.5 313.7,89.4 302.5,99.7 291.4,89.2 280.3,83.9 269.2,92.8 258.0,78.7 246.9,91.1 235.8,100.7 224.6,93.5 213.5,81.7 202.4,80.7 191.3,90.3 180.1,75.3 169.0,72.8 157.9,57.0 146.8,57.0 135.6,57.0 124.5,57.0 113.4,57.0 102.3,59.6 91.1,57.0 80.0,57.0" fill="#FFD700" opacity="0.3" stroke="none"/>
<polygon points="80.0,57.0 91.1,57.0 102.3,57.0 113.4,57.0 124.5,57.0 135.6,57.0 146.8,57.0 157.9,57.0 169.0,57.0 180.1,57.0 191.3,57.0 202.4,57.0 213.5,57.0 224.6,57.0 235.8,57.0 246.9,57.0 258.0,57.0 269.2,57.0 280.3,57.0 291.4,57.0 302.5,57.0 313.7,57.0 324.8,57.0 335.9,57.0 347.0,57.0 358.2,57.0 369.3,57.0 380.4,57.0 391.5,57.0 402.7,57.0 413.8,57.0 424.9,57.0 436.1,57.0 447.2,57.0 458.3,57.0 469.4,57.0 480.6,57.0 491.7,57.0 502.8,57.0 513.9,57.0 525.1,57.0 536.2,57.0 547.3,57.0 558.5,57.0 569.6,57.0 580.7,57.0 591.8,57.0 603.0,57.0 614.1,57.0 625.2,57.0 636.3,57.0 647.5,57.0 658.6,57.0 669.7,57.0 680.8,57.0 692.0,57.0 703.1,57.0 714.2,57.0 725.4,57.0 736.5,57.0 747.6,57.0 758.7,57.0 769.9,57.0 781.0,57.0 792.1,57.0 803.2,57.0 814.4,57.0 825.5,57.0 836.6,57.0 847.7,57.0 858.9,57.0 870.0,57.0 870.0,84.2 858.9,94.7 847.7,119.5 836.6,130.8 825.5,90.1 814.4,85.8 803.2,57.0 792.1,57.0 781.0,81.8 769.9,125.5 758.7,119.3 747.6,57.0 736.5,68.0 725.4,57.0 714.2,57.0 703.1,96.4 692.0,117.2 680.8,79.2 669.7,105.3 658.6,75.7 647.5,109.5 636.3,57.0 625.2,111.9 614.1,164.8 603.0,166.5 591.8,192.7 580.7,211.1 569.6,254.1 558.5,259.7 547.3,240.8 536.2,234.2 525.1,252.9 513.9,241.3 502.8,245.7 491.7,276.2 480.6,276.3 469.4,314.3 458.3,310.7 447.2,291.5 436.1,297.7 424.9,294.1 413.8,275.5 402.7,295.6 391.5,226.7 380.4,193.1 369.3,147.8 358.2,161.2 347.0,188.4 335.9,143.9 324.8,82.0 313.7,57.0 302.5,146.9 291.4,126.8 280.3,160.9 269.2,199.3 258.0,185.8 246.9,63.6 235.8,57.0 224.6,57.0 213.5,57.0 202.4,57.0 191.3,57.0 180.1,57.0 169.0,83.5 157.9,57.0 146.8,57.0 135.6,68.2 124.5,57.0 113.4,84.3 102.3,167.2 91.1,78.5 80.0,57.0" fill="#f7931a" opacity="0.2" stroke="none"/>
<polyline points="80.0,57.0 91.1,57.0 102.3,59.6 113.4,57.0 124.5,57.0 135.6,57.0 146.8,57.0 157.9,57.0 169.0,72.8 180.1,75.3 191.3,90.3 202.4,80.7 213.5,81.7 224.6,93.5 235.8,100.7 246.9,91.1 258.0,78.7 269.2,92.8 280.3,83.9 291.4,89.2 302.5,99.7 313.7,89.4 324.8,88.5 335.9,90.5 347.0,87.1 358.2,77.2 369.3,64.6 380.4,78.9 391.5,85.1 402.7,94.8 413.8,99.4 424.9,107.3 436.1,114.8 447.2,119.5 458.3,102.2 469.4,92.6 480.6,73.2 491.7,83.9 502.8,64.0 513.9,57.0 525.1,65.8 536.2,74.5 547.3,65.4 558.5,75.8 569.6,77.5 580.7,64.7 591.8,58.0 603.0,57.0 614.1,61.6 625.2,57.2 636.3,57.0 647.5,57.0 658.6,57.0 669.7,72.2 680.8,58.3 692.0,57.0 703.1,57.0 714.2,57.0 725.4,60.7 736.5,68.4 747.6,57.0 758.7,57.0 769.9,57.0 781.0,57.0 792.1,57.0 803.2,66.0 814.4,62.2 825.5,57.0 836.6,67.5 847.7,74.3 858.9,76.9 870.0,79.5" fill="none" stroke="#b8860b" stroke-width="1.8"/>
<polyline points="80.0,57.0 91.1,78.5 102.3,167.2 113.4,84.3 124.5,57.0 135.6,68.2 146.8,57.0 157.9,57.0 169.0,83.5 180.1,57.0 191.3,57.0 202.4,57.0 213.5,57.0 224.6,57.0 235.8,57.0 246.9,63.6 258.0,185.8 269.2,199.3 280.3,160.9 291.4,126.8 302.5,146.9 313.7,57.0 324.8,82.0 335.9,143.9 347.0,188.4 358.2,161.2 369.3,147.8 380.4,193.1 391.5,226.7 402.7,295.6 413.8,275.5 424.9,294.1 436.1,297.7 447.2,291.5 458.3,310.7 469.4,314.3 480.6,276.3 491.7,276.2 502.8,245.7 513.9,241.3 525.1,252.9 536.2,234.2 547.3,240.8 558.5,259.7 569.6,254.1 580.7,211.1 591.8,192.7 603.0,166.5 614.1,164.8 625.2,111.9 636.3,57.0 647.5,109.5 658.6,75.7 669.7,105.3 680.8,79.2 692.0,117.2 703.1,96.4 714.2,57.0 725.4,57.0 736.5,68.0 747.6,57.0 758.7,119.3 769.9,125.5 781.0,81.8 792.1,57.0 803.2,57.0 814.4,85.8 825.5,90.1 836.6,130.8 847.7,119.5 858.9,94.7 870.0,84.2" fill="none" stroke="#f7931a" stroke-width="1.8"/>
<rect x="92.0" y="60.0" width="14" height="3" fill="#b8860b"/>
<text x="112.0" y="66.0" font-size="11" fill="#333">Gold (max DD -17.7%)</text>
<rect x="92.0" y="80.0" width="14" height="3" fill="#f7931a"/>
<text x="112.0" y="86.0" font-size="11" fill="#333">BTC (max DD -73.1%)</text>
</svg>